<svg id="Layer_1" data-name="Layer 1" xmlns="http://www.w3.org/2000/svg" viewBox="0 0 1920 1920"><defs><style>.cls-1{fill:#7cc3df;}</style></defs><title>github</title><path class="cls-1" d="M960,0C429.92,0,0,440.71,0,984.27c0,434.88,275,803.82,656.56,934,47.92,9.1,63.44-21.41,63.44-47.33V1687.69c-267,59.55-322.64-116.14-322.64-116.14-43.68-113.76-106.64-144-106.64-144-87.12-61.11,6.64-59.8,6.64-59.8,96.4,6.89,147.12,101.47,147.12,101.47,85.6,150.42,224.56,107,279.36,81.77,8.56-63.56,33.44-107,61-131.56-213.2-25-437.36-109.42-437.36-486.48,0-107.53,37.52-195.29,98.88-264.19-9.92-24.85-42.8-125,9.36-260.5,0,0,80.64-26.42,264.08,100.88C796.32,487.3,878.4,476.39,960,476c81.6.41,163.76,11.32,240.48,33.13,183.28-127.3,263.76-100.88,263.76-100.88,52.24,135.58,19.36,235.73,9.44,260.5,61.6,68.9,98.8,156.74,98.8,264.19,0,378-224.56,461.3-438.32,485.66,34.4,30.51,65.84,90.39,65.84,182.25v270.1c0,26.17,15.36,56.92,64.08,47.25C1645.28,1787.84,1920,1419,1920,984.27,1920,440.71,1490.16,0,960,0Z"/></svg>