<svg id="Layer_1" data-name="Layer 1" xmlns="http://www.w3.org/2000/svg" viewBox="0 0 1920 1920"><defs><style>.cls-1{fill:#7cc3df;fill-rule:evenodd;}</style></defs><title>linkedin</title><path class="cls-1" d="M288.31,0h1344c159.07,0,288,128.93,288,288V1632c0,159.08-128.93,288-288,288h-1344c-159.08,0-288-128.92-288-288V288C.31,128.93,129.23,0,288.31,0Zm237,691.88A138.75,138.75,0,1,0,386.56,553.13,138.76,138.76,0,0,0,525.31,691.88Zm637.5,251.24c-86.26,0-135,75-135,150v412.5H781.54V763.13h246.27v105c30-48.74,93.75-120,221.25-120,165,0,285,105,285,333.75v423.75h-247.5V1111.87C1286.56,1010.63,1252.81,943.12,1162.81,943.12Zm-518.07-180H398.48v742.49H644.74Z"/></svg>