<svg id="_2" data-name="2" xmlns="http://www.w3.org/2000/svg" viewBox="0 0 800 800"><defs><style>.cls-1{fill:#f46868;}</style></defs><title>exclamation</title><path class="cls-1" d="M749.29,415.24a42.64,42.64,0,0,1,0-30.5l30.42-79.86a42.81,42.81,0,0,0-16.61-51.12L691.55,207a42.87,42.87,0,0,1-17.93-24.69l-22.34-82.5a42.85,42.85,0,0,0-43.48-31.6l-85.37,4.27a42.88,42.88,0,0,1-29-9.43L426.88,9.49a42.82,42.82,0,0,0-53.76,0l-66.55,53.6a42.92,42.92,0,0,1-29,9.43l-85.36-4.27a42.85,42.85,0,0,0-43.48,31.6l-22.33,82.5A43,43,0,0,1,108.45,207L36.89,253.76a42.85,42.85,0,0,0-16.61,51.12l30.43,79.87a42.64,42.64,0,0,1,0,30.5L20.28,495.12a42.84,42.84,0,0,0,16.61,51.11L108.45,593a42.76,42.76,0,0,1,17.93,24.66l22.33,82.5a42.83,42.83,0,0,0,43.48,31.6l85.36-4.24a42.75,42.75,0,0,1,29,9.41l66.55,53.62a42.82,42.82,0,0,0,53.74,0l66.57-53.62a42.75,42.75,0,0,1,29-9.41l85.37,4.24a42.83,42.83,0,0,0,43.48-31.6l22.34-82.5A42.68,42.68,0,0,1,691.55,593l71.55-46.74a42.79,42.79,0,0,0,16.6-51.11ZM451.22,576.76a29.61,29.61,0,0,1-29.58,29.6H378.35a29.61,29.61,0,0,1-29.58-29.6V531.58A29.61,29.61,0,0,1,378.35,502h43.29a29.61,29.61,0,0,1,29.58,29.6Zm0-156.53a29.59,29.59,0,0,1-29.58,29.58H378.35a29.59,29.59,0,0,1-29.58-29.58v-197a29.59,29.59,0,0,1,29.58-29.6h43.29a29.59,29.59,0,0,1,29.58,29.6Z"/></svg>